<svg width="70" height="70" viewBox="0 0 70 70" fill="none" xmlns="http://www.w3.org/2000/svg">
<rect width="70" height="70" rx="35" fill="#8DD193"/>
<path d="M22.4737 46.9221L27.7642 41.6316H44.5789C45.3606 41.6316 46.1103 41.3211 46.6631 40.7683C47.2158 40.2156 47.5263 39.4659 47.5263 38.6842V25.4211C47.5263 24.6394 47.2158 23.8897 46.6631 23.3369C46.1103 22.7842 45.3606 22.4737 44.5789 22.4737H25.4211C24.6394 22.4737 23.8897 22.7842 23.3369 23.3369C22.7842 23.8897 22.4737 24.6394 22.4737 25.4211V46.9221ZM22.4737 49H21V25.4211C21 24.2485 21.4658 23.124 22.2949 22.2949C23.124 21.4658 24.2485 21 25.4211 21H44.5789C45.7515 21 46.876 21.4658 47.7051 22.2949C48.5342 23.124 49 24.2485 49 25.4211V38.6842C49 39.8567 48.5342 40.9813 47.7051 41.8104C46.876 42.6395 45.7515 43.1053 44.5789 43.1053H28.3684L22.4737 49Z" fill="#6C6C6C"/>
</svg>
