<svg width="24" height="24" viewBox="0 0 24 24" fill="none" xmlns="http://www.w3.org/2000/svg">
<g clip-path="url(#clip0_309_372)">
<path fill-rule="evenodd" clip-rule="evenodd" d="M20.25 3.75H12.75V2.25C12.75 1.83579 12.4142 1.5 12 1.5C11.5858 1.5 11.25 1.83579 11.25 2.25V3.75H3.75C2.92157 3.75 2.25 4.42157 2.25 5.25V16.5C2.25 17.3284 2.92157 18 3.75 18H7.44L5.41406 20.5312C5.15518 20.8549 5.20765 21.3271 5.53125 21.5859C5.85485 21.8448 6.32705 21.7924 6.58594 21.4688L9.36 18H14.64L17.4141 21.4688C17.6729 21.7924 18.1451 21.8448 18.4688 21.5859C18.7924 21.3271 18.8448 20.8549 18.5859 20.5312L16.56 18H20.25C21.0784 18 21.75 17.3284 21.75 16.5V5.25C21.75 4.42157 21.0784 3.75 20.25 3.75ZM20.25 16.5H3.75V5.25H20.25V16.5Z" fill="#121417"/>
</g>
<defs>
<clipPath id="clip0_309_372">
<rect width="24" height="24" fill="white"/>
</clipPath>
</defs>
</svg>
