<svg width="159" height="19" viewBox="0 0 159 19" fill="none" xmlns="http://www.w3.org/2000/svg">
<path d="M9.12876e-05 9.17171C-2.11358e-07 6.03701 0 3.08041 0 0C5.31271 0 10.551 0 16 0C16 0.959161 16 1.96788 16 3.16854C12.164 3.16854 8.3909 3.16854 4.48815 3.16854C4.48815 4.52793 4.48815 5.90087 4.48815 7.4418C7.92412 7.4418 11.4043 7.4418 14.9937 7.4418C14.9937 8.64476 14.9937 9.68678 14.9937 10.932C11.5535 10.932 8.0816 10.932 4.46599 10.932C4.46599 13.7038 4.46599 16.2835 4.46599 19C2.95297 19 1.5826 19 0.000181233 19C0.000181233 15.825 0.000181027 12.5874 9.12876e-05 9.17171Z" fill="#01090D"/>
<path d="M19.8961 12.5746C17.3697 7.42468 20.5432 2.87859 24.9559 1.48916C29.8678 -0.0574727 36.6387 2.06022 37.8669 7.88908C38.3534 10.1976 37.4463 11.9953 36.1165 13.6501C34.1601 16.0848 31.4327 17.0395 28.4661 16.9988C25.0214 16.9515 21.939 15.8625 19.8961 12.5746ZM33.0688 9.25951C33.0105 6.13326 31.4569 4.47264 28.4915 4.36701C26.1712 4.28436 23.8859 6.17432 23.6829 8.3438C23.4382 10.9585 25.029 13.1492 27.4251 13.4277C30.9601 13.8385 33.0497 12.0113 33.0688 9.25951Z" fill="#01090D"/>
<path d="M43.831 0.51815C44.2163 0.353005 44.4714 0.238067 45 0C45 6.07719 45 11.9871 45 18C43.8377 18 42.5006 18 41.0189 18C41.0189 12.6809 40.9569 7.41038 41.0576 2.14285C41.0868 0.613312 42.7801 1.04911 43.831 0.51815Z" fill="#01090D"/>
<path d="M50 4.94999C50 9.71609 50 14.3062 50 19C48.6493 19 47.361 19 46 19C46 13.2619 46 7.56584 46 1.83018C47.2367 1.26431 48.4842 0.693518 49.9999 0C49.9999 1.76516 49.9999 3.26958 50 4.94999Z" fill="#01090D"/>
<path d="M59.7437 1.03838C63.183 0.850729 66.2547 1.28438 68.7079 3.84452C72.192 7.48048 71.6359 12.3289 67.5041 15.1859C63.9121 17.6696 57.9296 17.817 54.2459 14.2827C52.1967 12.3166 51.6307 9.83372 52.2207 7.25015C52.8498 4.49503 54.7774 2.64387 57.4608 1.7043C58.1576 1.46029 58.8771 1.28249 59.7437 1.03838ZM62.4718 4.72563C61.8016 4.75899 61.1165 4.71355 60.4638 4.8398C58.0475 5.30721 56.7711 6.7604 56.7478 8.97832C56.7238 11.2727 57.9087 12.7394 60.2671 13.3347C62.7501 13.9615 65.483 12.502 66.0401 10.2798C66.7267 7.541 65.219 5.0124 62.4718 4.72563Z" fill="#01090D"/>
<path d="M78.1077 14.1534C77.4107 12.1065 76.8005 10.175 76.1453 8.25961C75.4869 6.33466 74.7837 4.42574 74 2.22932C75.4733 2.22932 76.8117 2.22932 78.2895 2.22932C79.2367 5.24281 80.1944 8.28985 81.1521 11.3369C81.2824 11.3358 81.4127 11.3347 81.543 11.3337C82.2606 8.91252 83.063 6.51314 83.6643 4.06215C84.0283 2.57829 84.467 1.98306 86.2193 2.02464C88.3455 2.0751 89.337 2.61424 89.7431 4.82883C90.1474 7.0336 91.0305 9.14653 92.0475 11.3709C92.6674 9.33277 93.2856 7.29405 93.9084 5.25682C94.0659 4.74144 94.2944 4.24182 94.3932 3.71589C94.6746 2.2189 95.5015 1.76216 96.9238 2.11104C97.4774 2.24685 98.0896 2.13323 99 2.13323C98.2719 4.35517 97.6017 6.40751 96.9267 8.45816C96.2567 10.4932 95.5886 12.529 94.9067 14.5598C94.4384 15.9545 93.6744 17.0204 92.0486 16.9638C90.59 16.9131 89.5709 16.4338 89.1838 14.7222C88.7273 12.7043 87.9319 10.7659 87.2709 8.79735C87.0957 8.2754 86.8746 7.76956 86.5218 6.86461C85.5979 9.63844 84.6826 11.9453 84.083 14.335C83.651 16.0569 82.8064 16.9525 81.1069 16.9985C79.2961 17.0476 78.5501 15.862 78.1077 14.1534Z" fill="#01090D"/>
<path d="M102 12.9754C102.002 11.8916 102.003 10.9632 102.003 10.0349C102.003 6.65002 102.751 5.71795 106.474 4.58568C106.474 7.2197 106.502 9.8174 106.463 12.4141C106.44 13.9082 106.774 15.1117 108.6 15.2667C110.134 15.397 111.414 14.2614 111.453 12.5327C111.529 9.17076 111.456 5.8057 111.446 2.44193C111.443 1.64562 111.445 0.849299 111.445 0.0675544C114.546 -0.307618 115.941 0.873645 115.938 3.76751C115.935 6.55201 115.741 9.35133 115.973 12.1177C116.384 17.0095 111.977 19.4683 107.548 18.9261C104.192 18.5151 102.555 16.719 102 12.9754Z" fill="#01090D"/>
<path d="M128.564 14.6327C126.738 14.2415 125.06 13.8487 123.281 13.4323C123.281 15.0008 123.281 16.954 123.281 19C121.832 19 120.556 19 119.163 19C119.163 17.7318 119.177 16.4436 119.16 15.1558C119.128 12.8175 119.158 10.4745 119.019 8.14231C118.715 3.08 122.166 0.642915 126.198 0.0917238C128.693 -0.249381 131.063 0.360388 133.168 1.92956C135.445 3.62693 136.343 5.92753 135.883 8.62667C135.371 11.6389 133.347 13.4588 130.527 14.3627C129.951 14.5471 129.318 14.5464 128.564 14.6327ZM126.074 3.65458C124.801 3.96096 123.816 4.60105 123.416 5.95399C122.856 7.84689 123.417 9.58915 124.934 10.6148C126.575 11.7242 128.798 11.5894 130.238 10.2931C131.673 9.00098 131.984 7.31514 131.121 5.50244C130.368 3.92179 128.56 3.21344 126.074 3.65458Z" fill="#01090D"/>
<path d="M155.978 5.81184C154.971 6.99705 154.052 8.08998 153.058 9.27178C155.077 11.7352 157.038 14.1287 159 16.5222C158.972 16.6815 158.944 16.8407 158.916 17C157.178 16.8451 155.161 17.1939 153.778 16.3981C152.301 15.5481 151.422 13.6177 150.123 11.9546C149.174 13.1187 148.178 14.1378 147.425 15.3177C146.568 16.6601 145.477 17.0826 143.987 16.9096C143.12 16.8088 142.232 16.8913 141 16.8913C143.075 14.1845 144.975 11.7065 146.865 9.24081C144.935 6.91311 143.084 4.68047 141.224 2.43741C145.441 1.07851 147.946 3.16561 149.9 7.03879C151.981 3.4403 154.342 0.878034 158.718 2.49476C157.881 3.51191 156.974 4.61573 155.978 5.81184Z" fill="#01090D"/>
<path d="M127.58 4.11021C130.38 3.72682 132.534 4.3589 133.43 5.76936C134.458 7.38689 134.088 8.89122 132.379 10.0442C130.664 11.2009 128.016 11.3212 126.062 10.3313C124.254 9.41605 123.586 7.86139 124.253 6.17229C124.73 4.96502 125.903 4.39385 127.58 4.11021Z" fill="#D9ED92"/>
</svg>
