<svg width="20" height="20" viewBox="0 0 20 20" fill="none" xmlns="http://www.w3.org/2000/svg">
<path d="M6.5013 1.6665H13.5013C16.168 1.6665 18.3346 3.83317 18.3346 6.49984V13.4998C18.3346 14.7817 17.8254 16.0111 16.919 16.9175C16.0126 17.8239 14.7832 18.3332 13.5013 18.3332H6.5013C3.83464 18.3332 1.66797 16.1665 1.66797 13.4998V6.49984C1.66797 5.21796 2.17719 3.98858 3.08362 3.08215C3.99005 2.17573 5.21942 1.6665 6.5013 1.6665ZM6.33464 3.33317C5.53899 3.33317 4.77592 3.64924 4.21332 4.21185C3.65071 4.77446 3.33464 5.53752 3.33464 6.33317V13.6665C3.33464 15.3248 4.6763 16.6665 6.33464 16.6665H13.668C14.4636 16.6665 15.2267 16.3504 15.7893 15.7878C16.3519 15.2252 16.668 14.4622 16.668 13.6665V6.33317C16.668 4.67484 15.3263 3.33317 13.668 3.33317H6.33464ZM14.3763 4.58317C14.6526 4.58317 14.9175 4.69292 15.1129 4.88827C15.3082 5.08362 15.418 5.34857 15.418 5.62484C15.418 5.9011 15.3082 6.16606 15.1129 6.36141C14.9175 6.55676 14.6526 6.6665 14.3763 6.6665C14.1 6.6665 13.8351 6.55676 13.6397 6.36141C13.4444 6.16606 13.3346 5.9011 13.3346 5.62484C13.3346 5.34857 13.4444 5.08362 13.6397 4.88827C13.8351 4.69292 14.1 4.58317 14.3763 4.58317ZM10.0013 5.83317C11.1064 5.83317 12.1662 6.27216 12.9476 7.05356C13.729 7.83496 14.168 8.89477 14.168 9.99984C14.168 11.1049 13.729 12.1647 12.9476 12.9461C12.1662 13.7275 11.1064 14.1665 10.0013 14.1665C8.89623 14.1665 7.83643 13.7275 7.05502 12.9461C6.27362 12.1647 5.83464 11.1049 5.83464 9.99984C5.83464 8.89477 6.27362 7.83496 7.05502 7.05356C7.83643 6.27216 8.89623 5.83317 10.0013 5.83317ZM10.0013 7.49984C9.33826 7.49984 8.70238 7.76323 8.23354 8.23207C7.76469 8.70091 7.5013 9.3368 7.5013 9.99984C7.5013 10.6629 7.76469 11.2988 8.23354 11.7676C8.70238 12.2364 9.33826 12.4998 10.0013 12.4998C10.6643 12.4998 11.3002 12.2364 11.7691 11.7676C12.2379 11.2988 12.5013 10.6629 12.5013 9.99984C12.5013 9.3368 12.2379 8.70091 11.7691 8.23207C11.3002 7.76323 10.6643 7.49984 10.0013 7.49984Z" fill="#1F293A"/>
</svg>
