<svg width="25" height="24" viewBox="0 0 25 24" fill="none" xmlns="http://www.w3.org/2000/svg">
<g clip-path="url(#clip0_309_317)">
<path fill-rule="evenodd" clip-rule="evenodd" d="M20.75 2.25H4.25C3.42157 2.25 2.75 2.92157 2.75 3.75V20.25C2.75 21.0784 3.42157 21.75 4.25 21.75H20.75C21.5784 21.75 22.25 21.0784 22.25 20.25V3.75C22.25 2.92157 21.5784 2.25 20.75 2.25ZM20.75 20.25H4.25V3.75H20.75V20.25ZM9.5 10.5V16.5C9.5 16.9142 9.16421 17.25 8.75 17.25C8.33579 17.25 8 16.9142 8 16.5V10.5C8 10.0858 8.33579 9.75 8.75 9.75C9.16421 9.75 9.5 10.0858 9.5 10.5ZM17.75 13.125V16.5C17.75 16.9142 17.4142 17.25 17 17.25C16.5858 17.25 16.25 16.9142 16.25 16.5V13.125C16.25 12.0895 15.4105 11.25 14.375 11.25C13.3395 11.25 12.5 12.0895 12.5 13.125V16.5C12.5 16.9142 12.1642 17.25 11.75 17.25C11.3358 17.25 11 16.9142 11 16.5V10.5C11.0019 10.1198 11.2881 9.80112 11.666 9.75852C12.0438 9.71592 12.3938 9.96285 12.4803 10.3331C13.5142 9.63174 14.851 9.55891 15.955 10.1438C17.059 10.7287 17.7496 11.8756 17.75 13.125ZM9.875 7.875C9.875 8.49632 9.37132 9 8.75 9C8.12868 9 7.625 8.49632 7.625 7.875C7.625 7.25368 8.12868 6.75 8.75 6.75C9.37132 6.75 9.875 7.25368 9.875 7.875Z" fill="white"/>
</g>
<defs>
<clipPath id="clip0_309_317">
<rect width="24" height="24" fill="white" transform="translate(0.5)"/>
</clipPath>
</defs>
</svg>
