<svg width="24" height="24" viewBox="0 0 24 24" fill="none" xmlns="http://www.w3.org/2000/svg">
<path fill-rule="evenodd" clip-rule="evenodd" d="M22.5 11.2501C22.4974 8.76589 20.4842 6.75268 18 6.7501H14.2688C13.9959 6.73416 9.24187 6.39947 4.71469 2.6026C4.26836 2.22775 3.64529 2.14539 3.11689 2.3914C2.58849 2.63741 2.25044 3.16724 2.25 3.7501V18.7501C2.25008 19.3331 2.58799 19.8633 3.11646 20.1095C3.64494 20.3558 4.26823 20.2735 4.71469 19.8985C8.25562 16.9285 11.9334 16.0773 13.5 15.8392V18.8129C13.4994 19.3149 13.7499 19.784 14.1675 20.0626L15.1987 20.7498C15.6032 21.0197 16.1134 21.0769 16.5676 20.9031C17.0218 20.7293 17.3635 20.3461 17.4844 19.8751L18.5878 15.7163C20.8269 15.4184 22.4995 13.5089 22.5 11.2501ZM3.75 18.7435V3.7501C7.76344 7.11666 11.8716 7.96885 13.5 8.17885V14.3176C11.8734 14.5313 7.76625 15.3817 3.75 18.7435ZM16.0312 19.4935V19.5038L15 18.8167V15.7501H17.025L16.0312 19.4935ZM18 14.2501H15V8.2501H18C19.6569 8.2501 21 9.59324 21 11.2501C21 12.907 19.6569 14.2501 18 14.2501Z" fill="#121417"/>
</svg>
