<svg width="45" height="44" viewBox="0 0 45 44" fill="none" xmlns="http://www.w3.org/2000/svg">
<rect x="0.112305" width="44" height="44" rx="22" fill="#D9ED92"/>
<g clip-path="url(#clip0_201_134)">
<path fill-rule="evenodd" clip-rule="evenodd" d="M30.907 26.4944C30.3867 25.5981 29.6133 23.0622 29.6133 19.75C29.6133 15.6079 26.2554 12.25 22.1133 12.25C17.9711 12.25 14.6133 15.6079 14.6133 19.75C14.6133 23.0631 13.8389 25.5981 13.3186 26.4944C13.0481 26.9581 13.0462 27.5311 13.3134 27.9967C13.5807 28.4623 14.0764 28.7496 14.6133 28.75H18.4392C18.7959 30.4956 20.3316 31.7492 22.1133 31.7492C23.8949 31.7492 25.4306 30.4956 25.7873 28.75H29.6133C30.15 28.7493 30.6454 28.4619 30.9124 27.9963C31.1794 27.5308 31.1774 26.958 30.907 26.4944ZM22.1133 30.25C21.16 30.2497 20.3104 29.6487 19.9927 28.75H24.2339C23.9162 29.6487 23.0665 30.2497 22.1133 30.25ZM14.6133 27.25C15.3352 26.0088 16.1133 23.1325 16.1133 19.75C16.1133 16.4363 18.7996 13.75 22.1133 13.75C25.427 13.75 28.1133 16.4363 28.1133 19.75C28.1133 23.1297 28.8895 26.0059 29.6133 27.25H14.6133Z" fill="#0D141C"/>
</g>
<defs>
<clipPath id="clip0_201_134">
<rect width="24" height="24" fill="white" transform="translate(10.1133 10)"/>
</clipPath>
</defs>
</svg>
