<svg width="24" height="25" viewBox="0 0 24 25" fill="none" xmlns="http://www.w3.org/2000/svg">
<g clip-path="url(#clip0_309_336)">
<path fill-rule="evenodd" clip-rule="evenodd" d="M20.25 4.75H16.5V4C16.5 2.75736 15.4926 1.75 14.25 1.75H9.75C8.50736 1.75 7.5 2.75736 7.5 4V4.75H3.75C2.92157 4.75 2.25 5.42157 2.25 6.25V18.25C2.25 19.0784 2.92157 19.75 3.75 19.75H20.25C21.0784 19.75 21.75 19.0784 21.75 18.25V6.25C21.75 5.42157 21.0784 4.75 20.25 4.75ZM9 4C9 3.58579 9.33579 3.25 9.75 3.25H14.25C14.6642 3.25 15 3.58579 15 4V4.75H9V4ZM20.25 6.25V10.1509C17.7185 11.5289 14.8822 12.2505 12 12.25C9.11794 12.2505 6.28165 11.5292 3.75 10.1519V6.25H20.25ZM20.25 18.25H3.75V11.8413C6.31868 13.0977 9.1405 13.7506 12 13.75C14.8596 13.7501 17.6813 13.0969 20.25 11.8403V18.25ZM9.75 10C9.75 9.58579 10.0858 9.25 10.5 9.25H13.5C13.9142 9.25 14.25 9.58579 14.25 10C14.25 10.4142 13.9142 10.75 13.5 10.75H10.5C10.0858 10.75 9.75 10.4142 9.75 10Z" fill="#121417"/>
</g>
<defs>
<clipPath id="clip0_309_336">
<rect width="24" height="24" fill="white" transform="translate(0 0.5)"/>
</clipPath>
</defs>
</svg>
