<svg width="45" height="46" viewBox="0 0 45 46" fill="none" xmlns="http://www.w3.org/2000/svg">
<circle cx="22.5" cy="23" r="22.5" fill="#D9ED92"/>
<g clip-path="url(#clip0_201_120)">
<path fill-rule="evenodd" clip-rule="evenodd" d="M26.6188 23.9518L30.816 22.1274C31.3819 21.8765 31.7355 21.3037 31.7063 20.6853C31.677 20.067 31.2709 19.5301 30.6838 19.3337L15.6763 14.4334C15.1412 14.2619 14.5552 14.4038 14.1578 14.8011C13.7605 15.1985 13.6186 15.7845 13.7901 16.3196L18.6904 31.3271C18.8798 31.9202 19.4193 32.332 20.0413 32.3584H20.1154C20.7107 32.3603 21.2495 32.0064 21.4841 31.4593L23.3085 27.2621L27.9651 31.9187C28.2464 32.2001 28.628 32.3582 29.0259 32.3582C29.4237 32.3582 29.8053 32.2001 30.0866 31.9187L31.2754 30.7299C31.5568 30.4486 31.7148 30.067 31.7148 29.6692C31.7148 29.2713 31.5568 28.8897 31.2754 28.6084L26.6188 23.9518ZM20.1051 30.8668L20.1107 30.8621L20.1051 30.8668ZM29.0254 30.8584L24.3698 26.2018C24.0187 25.8503 23.5164 25.6954 23.0284 25.7881C22.5404 25.8809 22.1299 26.2092 21.9323 26.6649L20.1116 30.8509L15.2151 15.8584L30.2029 20.7531L26.0179 22.5728C25.5621 22.7704 25.2338 23.1809 25.1411 23.6689C25.0484 24.1569 25.2033 24.6592 25.5548 25.0103L30.2151 29.6687L29.0254 30.8584ZM18.9651 13.6084V12.8584C18.9651 12.4442 19.3009 12.1084 19.7151 12.1084C20.1293 12.1084 20.4651 12.4442 20.4651 12.8584V13.6084C20.4651 14.0226 20.1293 14.3584 19.7151 14.3584C19.3009 14.3584 18.9651 14.0226 18.9651 13.6084ZM11.4651 20.3584C11.4651 19.9442 11.8009 19.6084 12.2151 19.6084H12.9651C13.3793 19.6084 13.7151 19.9442 13.7151 20.3584C13.7151 20.7726 13.3793 21.1084 12.9651 21.1084H12.2151C11.8009 21.1084 11.4651 20.7726 11.4651 20.3584ZM22.0448 14.0228L22.7948 12.5228C22.9801 12.1523 23.4307 12.0022 23.8012 12.1876C24.1716 12.373 24.3217 12.8235 24.1363 13.194L23.3863 14.694C23.2664 14.9337 23.0278 15.0911 22.7603 15.1071C22.4928 15.1231 22.2371 14.9951 22.0895 14.7715C21.9419 14.5478 21.9248 14.2624 22.0448 14.0228ZM14.3863 23.0228C14.4755 23.2008 14.4902 23.4069 14.4272 23.5958C14.3643 23.7846 14.2288 23.9407 14.0507 24.0296L12.5507 24.7796C12.1802 24.965 11.7296 24.8149 11.5443 24.4445C11.3589 24.074 11.509 23.6234 11.8794 23.4381L13.3794 22.6881C13.5573 22.5989 13.7634 22.584 13.9522 22.6468C14.1411 22.7095 14.2972 22.8448 14.3863 23.0228Z" fill="#0D171C"/>
</g>
<defs>
<clipPath id="clip0_201_120">
<rect width="24" height="24" fill="white" transform="translate(10.7148 11.3582)"/>
</clipPath>
</defs>
</svg>
