<svg width="45" height="44" viewBox="0 0 45 44" fill="none" xmlns="http://www.w3.org/2000/svg">
<rect x="0.5" width="44" height="44" rx="22" fill="#D9ED92"/>
<g clip-path="url(#clip0_201_104)">
<path fill-rule="evenodd" clip-rule="evenodd" d="M29.25 14.5H23.25V11.5C23.25 11.0858 22.9142 10.75 22.5 10.75C22.0858 10.75 21.75 11.0858 21.75 11.5V14.5H15.75C14.0931 14.5 12.75 15.8431 12.75 17.5V28C12.75 29.6569 14.0931 31 15.75 31H29.25C30.9069 31 32.25 29.6569 32.25 28V17.5C32.25 15.8431 30.9069 14.5 29.25 14.5ZM30.75 28C30.75 28.8284 30.0784 29.5 29.25 29.5H15.75C14.9216 29.5 14.25 28.8284 14.25 28V17.5C14.25 16.6716 14.9216 16 15.75 16H29.25C30.0784 16 30.75 16.6716 30.75 17.5V28ZM25.875 22.75H19.125C17.6753 22.75 16.5 23.9253 16.5 25.375C16.5 26.8247 17.6753 28 19.125 28H25.875C27.3247 28 28.5 26.8247 28.5 25.375C28.5 23.9253 27.3247 22.75 25.875 22.75ZM23.25 24.25V26.5H21.75V24.25H23.25ZM18 25.375C18 24.7537 18.5037 24.25 19.125 24.25H20.25V26.5H19.125C18.5037 26.5 18 25.9963 18 25.375ZM25.875 26.5H24.75V24.25H25.875C26.4963 24.25 27 24.7537 27 25.375C27 25.9963 26.4963 26.5 25.875 26.5ZM17.25 20.125C17.25 19.5037 17.7537 19 18.375 19C18.9963 19 19.5 19.5037 19.5 20.125C19.5 20.7463 18.9963 21.25 18.375 21.25C17.7537 21.25 17.25 20.7463 17.25 20.125ZM25.5 20.125C25.5 19.5037 26.0037 19 26.625 19C27.2463 19 27.75 19.5037 27.75 20.125C27.75 20.7463 27.2463 21.25 26.625 21.25C26.0037 21.25 25.5 20.7463 25.5 20.125Z" fill="#0D141C"/>
</g>
<defs>
<clipPath id="clip0_201_104">
<rect width="24" height="24" fill="white" transform="translate(10.5 10)"/>
</clipPath>
</defs>
</svg>
