<svg width="25" height="24" viewBox="0 0 25 24" fill="none" xmlns="http://www.w3.org/2000/svg">
<g clip-path="url(#clip0_309_322)">
<path fill-rule="evenodd" clip-rule="evenodd" d="M23.6928 6.46313C23.5768 6.18285 23.3033 6.00006 23 6H20.1472C19.3359 4.61972 17.8604 3.76579 16.2594 3.75C15.0747 3.73446 13.9339 4.19754 13.0953 5.03438C12.2322 5.88138 11.7472 7.04071 11.75 8.25V8.82094C7.97563 7.82531 4.88844 4.755 4.85563 4.72219C4.65019 4.51493 4.34318 4.44566 4.06865 4.54461C3.79411 4.64356 3.6019 4.89277 3.57594 5.18344C3.17188 9.66375 4.47312 12.6619 5.63844 14.3878C6.20664 15.241 6.89786 16.0055 7.68969 16.6566C6.26188 18.3 4.01375 19.1634 3.98938 19.1728C3.77498 19.2531 3.609 19.4269 3.53868 19.6448C3.46837 19.8627 3.50142 20.1008 3.62844 20.2913C3.69875 20.3962 3.98 20.7647 4.66719 21.1087C5.51656 21.5344 6.63875 21.75 8 21.75C14.6253 21.75 20.1612 16.6481 20.7266 10.0837L23.5306 7.28062C23.7451 7.06601 23.8091 6.74335 23.6928 6.46313ZM19.4741 9.22031C19.3455 9.34921 19.2682 9.52049 19.2566 9.70219C18.875 15.6169 13.9325 20.25 8 20.25C7.01 20.25 6.3125 20.1187 5.82312 19.9613C6.90219 19.3753 8.40688 18.3675 9.37438 16.9163C9.48915 16.7438 9.52746 16.5315 9.48023 16.3298C9.43299 16.128 9.30442 15.9548 9.125 15.8512C9.08094 15.8259 5.00844 13.3819 5 6.85125C6.5 8.07 9.24219 9.96094 12.3753 10.4878C12.5927 10.5245 12.8151 10.4636 12.9836 10.3215C13.1521 10.1794 13.2495 9.9704 13.25 9.75V8.25C13.2483 7.44176 13.5728 6.66702 14.15 6.10125C14.7034 5.54686 15.4574 5.23983 16.2406 5.25C17.4275 5.265 18.5366 5.98875 19.0006 7.05094C19.1202 7.32382 19.3899 7.50008 19.6878 7.5H21.1878L19.4741 9.22031Z" fill="white"/>
</g>
<defs>
<clipPath id="clip0_309_322">
<rect width="24" height="24" fill="white" transform="translate(0.5)"/>
</clipPath>
</defs>
</svg>
