<svg width="50" height="50" viewBox="0 0 50 50" fill="none" xmlns="http://www.w3.org/2000/svg">
<path fill-rule="evenodd" clip-rule="evenodd" d="M42.7147 7.26573C38.0151 2.58268 31.7647 0.00237597 25.105 0C11.3821 0 0.213675 11.1136 0.2089 24.7743C0.206513 29.1413 1.35368 33.4038 3.53221 37.1602L0 50L13.1977 46.5548C16.8337 48.5293 20.9282 49.5687 25.0943 49.57H25.105C38.8256 49.57 49.9953 38.4551 50 24.7945C50.0024 18.1739 47.4156 11.95 42.7147 7.26692V7.26573ZM25.105 45.3859H25.0967C21.3842 45.3848 17.7422 44.3915 14.5646 42.5157L13.8089 42.0691L5.97694 44.1135L8.06714 36.5139L7.57532 35.7346C5.50422 32.4559 4.40958 28.6661 4.41197 24.7755C4.41675 13.4219 13.6991 4.18409 25.1135 4.18409C30.6403 4.18646 35.8354 6.33079 39.7424 10.2238C43.6494 14.1157 45.7993 19.2906 45.7969 24.7921C45.7921 36.1469 36.5099 45.3848 25.105 45.3848V45.3859ZM36.4549 29.9634C35.8329 29.6534 32.7747 28.1564 32.204 27.9498C31.6335 27.743 31.2193 27.6398 30.805 28.2598C30.3908 28.88 29.1983 30.2747 28.8354 30.6869C28.4725 31.1003 28.1096 31.1514 27.4876 30.8413C26.8658 30.5312 24.8615 29.8779 22.4849 27.7691C20.6358 26.1273 19.3871 24.1007 19.0243 23.4805C18.6614 22.8605 18.9861 22.5254 19.2964 22.2177C19.5757 21.9398 19.9183 21.4943 20.2299 21.1331C20.5415 20.7719 20.6442 20.513 20.8518 20.1007C21.0596 19.6873 20.9557 19.3263 20.8006 19.0161C20.6453 18.706 19.4015 15.6588 18.8822 14.4198C18.3772 13.2128 17.864 13.3767 17.4832 13.3566C17.1203 13.3387 16.7061 13.3352 16.2907 13.3352C15.8753 13.3352 15.2019 13.4896 14.6314 14.1097C14.0608 14.7298 12.454 16.2279 12.454 19.2739C12.454 22.3199 14.6828 25.265 14.9943 25.6784C15.3058 26.0918 19.3811 32.3442 25.6207 35.0266C27.1046 35.6645 28.2636 36.0459 29.1672 36.3311C30.6571 36.8027 32.0131 36.7362 33.085 36.577C34.28 36.3988 36.7653 35.0789 37.2833 33.6331C37.8014 32.1873 37.8014 30.947 37.6463 30.6892C37.4911 30.4314 37.0757 30.2758 36.4538 29.9658L36.4549 29.9634Z" fill="#25D366"/>
</svg>
