<svg width="40" height="73" viewBox="0 0 40 73" fill="none" xmlns="http://www.w3.org/2000/svg">
<rect width="2" height="40" transform="translate(19 32.6667)" fill="#D1DBE8"/>
<ellipse cx="20.5" cy="20.6667" rx="11.5" ry="12" fill="#34A0A4"/>
<path d="M20.8615 26.8457C19.9411 26.8457 19.1229 26.6881 18.407 26.3727C17.6953 26.0574 17.1328 25.6185 16.7195 25.056C16.3061 24.4935 16.0866 23.8436 16.0611 23.1064H18.4645C18.4858 23.4601 18.603 23.769 18.8161 24.0332C19.0291 24.2932 19.3125 24.4956 19.6662 24.6405C20.0199 24.7854 20.4162 24.8578 20.8551 24.8578C21.3239 24.8578 21.7393 24.7768 22.1016 24.6149C22.4638 24.4487 22.7472 24.2186 22.9517 23.9246C23.1563 23.6305 23.2564 23.2917 23.2521 22.9082C23.2564 22.5119 23.1541 22.1625 22.9453 21.8599C22.7365 21.5574 22.4339 21.3209 22.0376 21.1504C21.6456 20.98 21.1726 20.8947 20.6186 20.8947H19.4616V19.0666H20.6186C21.0746 19.0666 21.473 18.9878 21.8139 18.8301C22.1591 18.6724 22.4297 18.4508 22.6257 18.1653C22.8217 17.8756 22.9176 17.541 22.9134 17.1618C22.9176 16.791 22.8345 16.4693 22.6641 16.1966C22.4979 15.9196 22.2614 15.7044 21.9545 15.551C21.652 15.3976 21.2962 15.3209 20.8871 15.3209C20.4865 15.3209 20.1158 15.3933 19.7749 15.5382C19.4339 15.6831 19.1591 15.8898 18.9503 16.1582C18.7415 16.4224 18.6307 16.7378 18.6179 17.1042H16.3359C16.353 16.3713 16.5639 15.7278 16.9688 15.1739C17.3778 14.6156 17.9233 14.181 18.6051 13.8699C19.2869 13.5545 20.0518 13.3969 20.8999 13.3969C21.7734 13.3969 22.532 13.5609 23.1754 13.889C23.8232 14.2129 24.3239 14.6497 24.6776 15.1994C25.0313 15.7491 25.2081 16.3564 25.2081 17.0212C25.2124 17.7584 24.995 18.3763 24.5561 18.8748C24.1214 19.3734 23.5504 19.6994 22.843 19.8528V19.9551C23.7635 20.0829 24.4688 20.4239 24.9588 20.9778C25.4531 21.5275 25.6982 22.2115 25.6939 23.0297C25.6939 23.7626 25.4851 24.4189 25.0675 24.9984C24.6541 25.5737 24.0831 26.0254 23.3544 26.3535C22.63 26.6817 21.799 26.8457 20.8615 26.8457Z" fill="white"/>
</svg>
