<svg width="40" height="84" viewBox="0 0 40 84" fill="none" xmlns="http://www.w3.org/2000/svg">
<rect width="2" height="16" transform="translate(19 0.333496)" fill="#D1DBE8"/>
<rect width="2" height="40" transform="translate(19 43.3335)" fill="#D1DBE8"/>
<ellipse cx="20.5" cy="31.3335" rx="11.5" ry="12" fill="#34A0A4"/>
<path d="M16.1634 36.6665V34.9534L20.7081 30.4982C21.1428 30.0593 21.505 29.6693 21.7947 29.3284C22.0845 28.9875 22.3018 28.6573 22.4467 28.3377C22.5916 28.0181 22.6641 27.6772 22.6641 27.3149C22.6641 26.9016 22.5703 26.5479 22.3828 26.2539C22.1953 25.9556 21.9375 25.7255 21.6094 25.5635C21.2812 25.4016 20.9084 25.3206 20.4908 25.3206C20.0604 25.3206 19.6832 25.4101 19.3594 25.5891C19.0355 25.7638 18.7841 26.0131 18.6051 26.337C18.4304 26.6608 18.343 27.0465 18.343 27.4939H16.0866C16.0866 26.663 16.2763 25.9407 16.6555 25.327C17.0348 24.7134 17.5568 24.2382 18.2216 23.9016C18.8906 23.5649 19.6577 23.3966 20.5227 23.3966C21.4006 23.3966 22.1719 23.5607 22.8366 23.8888C23.5014 24.2169 24.017 24.6665 24.3835 25.2375C24.7543 25.8085 24.9396 26.4605 24.9396 27.1935C24.9396 27.6835 24.8459 28.1651 24.6584 28.6381C24.4709 29.1111 24.1406 29.6353 23.6676 30.2105C23.1989 30.7858 22.5405 31.4826 21.6925 32.3007L19.4361 34.5955V34.685H25.1378V36.6665H16.1634Z" fill="white"/>
</svg>
